<svg width="44" height="59" viewBox="0 0 44 59" fill="none" xmlns="http://www.w3.org/2000/svg">
<path d="M39 42.56H31.4L30.88 45.6H40.2L39.08 52H22.16L26.56 27H43.28L41.2 33.4H33L32.44 36.76H40.04L39 42.56ZM20.96 51.88L4 50.08H21.28L20.96 51.88ZM22.32 44.16L5.36 42.36H22.64L22.32 44.16ZM23 40.32L6.04 38.52H23.32L23 40.32ZM23.68 36.48L6.72 34.68H24L23.68 36.48ZM24.36 32.64L7.4 30.84H24.64L24.36 32.64ZM21.64 48L4.68 46.2H21.96L21.64 48ZM25 28.8L8.08 27H25.32L25 28.8Z" fill="white"/>
<path d="M39 42.56V43.06H39.4183L39.4922 42.6482L39 42.56ZM31.4 42.56V42.06H30.9783L30.9072 42.4757L31.4 42.56ZM30.88 45.6L30.3872 45.5157L30.2872 46.1H30.88V45.6ZM40.2 45.6L40.6925 45.6862L40.7951 45.1H40.2V45.6ZM39.08 52V52.5H39.5001L39.5725 52.0862L39.08 52ZM22.16 52L21.6676 51.9133L21.5643 52.5H22.16V52ZM26.56 27V26.5H26.1403L26.0676 26.9133L26.56 27ZM43.28 27L43.7555 27.1545L43.9682 26.5H43.28V27ZM41.2 33.4V33.9H41.5632L41.6755 33.5545L41.2 33.4ZM33 33.4V32.9H32.5764L32.5068 33.3178L33 33.4ZM32.44 36.76L31.9468 36.6778L31.8498 37.26H32.44V36.76ZM40.04 36.76L40.5322 36.8482L40.6376 36.26H40.04V36.76ZM20.96 51.88L20.9072 52.3772L21.3707 52.4264L21.4523 51.9675L20.96 51.88ZM4 50.08V49.58L3.94723 50.5772L4 50.08ZM21.28 50.08L21.7723 50.1675L21.8767 49.58H21.28V50.08ZM22.32 44.16L22.2672 44.6572L22.7307 44.7064L22.8123 44.2475L22.32 44.16ZM5.36 42.36V41.86L5.30723 42.8572L5.36 42.36ZM22.64 42.36L23.1323 42.4475L23.2367 41.86H22.64V42.36ZM23 40.32L22.9472 40.8172L23.4107 40.8664L23.4923 40.4075L23 40.32ZM6.04 38.52V38.02L5.98723 39.0172L6.04 38.52ZM23.32 38.52L23.8123 38.6075L23.9167 38.02H23.32V38.52ZM23.68 36.48L23.6272 36.9772L24.0907 37.0264L24.1723 36.5675L23.68 36.48ZM6.72 34.68V34.18L6.66723 35.1772L6.72 34.68ZM24 34.68L24.4923 34.7675L24.5967 34.18H24V34.68ZM24.36 32.64L24.3072 33.1372L24.7809 33.1875L24.8541 32.7169L24.36 32.64ZM7.4 30.84V30.34L7.34723 31.3372L7.4 30.84ZM24.64 30.84L25.1341 30.9169L25.2238 30.34H24.64V30.84ZM21.64 48L21.5872 48.4972L22.0507 48.5464L22.1323 48.0875L21.64 48ZM4.68 46.2V45.7L4.62723 46.6972L4.68 46.2ZM21.96 46.2L22.4523 46.2875L22.5567 45.7H21.96V46.2ZM25 28.8L24.9471 29.2972L25.4107 29.3465L25.4923 28.8875L25 28.8ZM8.08 27V26.5L8.02711 27.4972L8.08 27ZM25.32 27L25.8123 27.0875L25.9167 26.5H25.32V27ZM39 42.06H31.4V43.06H39V42.06ZM30.9072 42.4757L30.3872 45.5157L31.3728 45.6843L31.8928 42.6443L30.9072 42.4757ZM30.88 46.1H40.2V45.1H30.88V46.1ZM39.7075 45.5138L38.5875 51.9138L39.5725 52.0862L40.6925 45.6862L39.7075 45.5138ZM39.08 51.5H22.16V52.5H39.08V51.5ZM22.6524 52.0867L27.0524 27.0867L26.0676 26.9133L21.6676 51.9133L22.6524 52.0867ZM26.56 27.5H43.28V26.5H26.56V27.5ZM42.8045 26.8455L40.7245 33.2455L41.6755 33.5545L43.7555 27.1545L42.8045 26.8455ZM41.2 32.9H33V33.9H41.2V32.9ZM32.5068 33.3178L31.9468 36.6778L32.9332 36.8422L33.4932 33.4822L32.5068 33.3178ZM32.44 37.26H40.04V36.26H32.44V37.26ZM39.5479 36.6718L38.5078 42.4718L39.4922 42.6482L40.5322 36.8482L39.5479 36.6718ZM21.0128 51.3828L4.05277 49.5828L3.94723 50.5772L20.9072 52.3772L21.0128 51.3828ZM4 50.58H21.28V49.58H4V50.58ZM20.7877 49.9925L20.4677 51.7925L21.4523 51.9675L21.7723 50.1675L20.7877 49.9925ZM22.3728 43.6628L5.41277 41.8628L5.30723 42.8572L22.2672 44.6572L22.3728 43.6628ZM5.36 42.86H22.64V41.86H5.36V42.86ZM22.1477 42.2725L21.8277 44.0725L22.8123 44.2475L23.1323 42.4475L22.1477 42.2725ZM23.0528 39.8228L6.09277 38.0228L5.98723 39.0172L22.9472 40.8172L23.0528 39.8228ZM6.04 39.02H23.32V38.02H6.04V39.02ZM22.8277 38.4325L22.5077 40.2325L23.4923 40.4075L23.8123 38.6075L22.8277 38.4325ZM23.7328 35.9828L6.77277 34.1828L6.66723 35.1772L23.6272 36.9772L23.7328 35.9828ZM6.72 35.18H24V34.18H6.72V35.18ZM23.5077 34.5925L23.1877 36.3925L24.1723 36.5675L24.4923 34.7675L23.5077 34.5925ZM24.4128 32.1428L7.45277 30.3428L7.34723 31.3372L24.3072 33.1372L24.4128 32.1428ZM7.4 31.34H24.64V30.34H7.4V31.34ZM24.1459 30.7631L23.8659 32.5631L24.8541 32.7169L25.1341 30.9169L24.1459 30.7631ZM21.6928 47.5028L4.73277 45.7028L4.62723 46.6972L21.5872 48.4972L21.6928 47.5028ZM4.68 46.7H21.96V45.7H4.68V46.7ZM21.4677 46.1125L21.1477 47.9125L22.1323 48.0875L22.4523 46.2875L21.4677 46.1125ZM25.0529 28.3028L8.13289 26.5028L8.02711 27.4972L24.9471 29.2972L25.0529 28.3028ZM8.08 27.5H25.32V26.5H8.08V27.5ZM24.8277 26.9125L24.5077 28.7125L25.4923 28.8875L25.8123 27.0875L24.8277 26.9125Z" fill="black" fill-opacity="0.69"/>
<mask id="path-3-outside-1_2_5" maskUnits="userSpaceOnUse" x="-1" y="10" width="37" height="27" fill="black">
<rect fill="white" x="-1" y="10" width="37" height="27"/>
<path d="M33.36 36H18.16L22.56 11H30.16L26.88 29.6H34.48L33.36 36ZM16.96 35.88L0 34.08H17.28L16.96 35.88ZM18.32 28.16L1.36 26.36H18.64L18.32 28.16ZM19 24.32L2.04 22.52H19.32L19 24.32ZM19.68 20.48L2.72 18.68H20L19.68 20.48ZM20.36 16.64L3.4 14.84H20.64L20.36 16.64ZM17.64 32L0.68 30.2H17.96L17.64 32ZM21 12.8L4.08 11H21.32L21 12.8Z"/>
</mask>
<path d="M33.36 36H18.16L22.56 11H30.16L26.88 29.6H34.48L33.36 36ZM16.96 35.88L0 34.08H17.28L16.96 35.88ZM18.32 28.16L1.36 26.36H18.64L18.32 28.16ZM19 24.32L2.04 22.52H19.32L19 24.32ZM19.68 20.48L2.72 18.68H20L19.68 20.48ZM20.36 16.64L3.4 14.84H20.64L20.36 16.64ZM17.64 32L0.68 30.2H17.96L17.64 32ZM21 12.8L4.08 11H21.32L21 12.8Z" fill="white"/>
<path d="M33.36 36V37H34.2002L34.345 36.1724L33.36 36ZM18.16 36L17.1751 35.8267L16.9686 37H18.16V36ZM22.56 11V10H21.7206L21.5751 10.8267L22.56 11ZM30.16 11L31.1448 11.1737L31.3518 10H30.16V11ZM26.88 29.6L25.8952 29.4263L25.6882 30.6H26.88V29.6ZM34.48 29.6L35.465 29.7724L35.6702 28.6H34.48V29.6ZM16.96 35.88L16.8545 36.8744L17.7814 36.9728L17.9446 36.055L16.96 35.88ZM0 34.08V33.08L-0.105539 35.0744L0 34.08ZM17.28 34.08L18.2646 34.255L18.4735 33.08H17.28V34.08ZM18.32 28.16L18.2145 29.1544L19.1414 29.2528L19.3046 28.335L18.32 28.16ZM1.36 26.36V25.36L1.25446 27.3544L1.36 26.36ZM18.64 26.36L19.6246 26.535L19.8335 25.36H18.64V26.36ZM19 24.32L18.8945 25.3144L19.8214 25.4128L19.9846 24.495L19 24.32ZM2.04 22.52V21.52L1.93446 23.5144L2.04 22.52ZM19.32 22.52L20.3046 22.695L20.5135 21.52H19.32V22.52ZM19.68 20.48L19.5745 21.4744L20.5014 21.5728L20.6646 20.655L19.68 20.48ZM2.72 18.68V17.68L2.61446 19.6744L2.72 18.68ZM20 18.68L20.9846 18.855L21.1935 17.68H20V18.68ZM20.36 16.64L20.2545 17.6344L21.2017 17.7349L21.3481 16.7937L20.36 16.64ZM3.4 14.84V13.84L3.29446 15.8344L3.4 14.84ZM20.64 14.84L21.6281 14.9937L21.8076 13.84H20.64V14.84ZM17.64 32L17.5345 32.9944L18.4614 33.0928L18.6246 32.175L17.64 32ZM0.68 30.2V29.2L0.57446 31.1944L0.68 30.2ZM17.96 30.2L18.9446 30.375L19.1535 29.2H17.96V30.2ZM21 12.8L20.8942 13.7944L21.8214 13.893L21.9846 12.975L21 12.8ZM4.08 11V10L3.97421 11.9944L4.08 11ZM21.32 11L22.3046 11.175L22.5135 10H21.32V11ZM33.36 35H18.16V37H33.36V35ZM19.1449 36.1733L23.5449 11.1733L21.5751 10.8267L17.1751 35.8267L19.1449 36.1733ZM22.56 12H30.16V10H22.56V12ZM29.1752 10.8263L25.8952 29.4263L27.8648 29.7737L31.1448 11.1737L29.1752 10.8263ZM26.88 30.6H34.48V28.6H26.88V30.6ZM33.495 29.4276L32.375 35.8276L34.345 36.1724L35.465 29.7724L33.495 29.4276ZM17.0655 34.8856L0.105539 33.0856L-0.105539 35.0744L16.8545 36.8744L17.0655 34.8856ZM0 35.08H17.28V33.08H0V35.08ZM16.2954 33.905L15.9754 35.705L17.9446 36.055L18.2646 34.255L16.2954 33.905ZM18.4255 27.1656L1.46554 25.3656L1.25446 27.3544L18.2145 29.1544L18.4255 27.1656ZM1.36 27.36H18.64V25.36H1.36V27.36ZM17.6554 26.185L17.3354 27.985L19.3046 28.335L19.6246 26.535L17.6554 26.185ZM19.1055 23.3256L2.14554 21.5256L1.93446 23.5144L18.8945 25.3144L19.1055 23.3256ZM2.04 23.52H19.32V21.52H2.04V23.52ZM18.3354 22.345L18.0154 24.145L19.9846 24.495L20.3046 22.695L18.3354 22.345ZM19.7855 19.4856L2.82554 17.6856L2.61446 19.6744L19.5745 21.4744L19.7855 19.4856ZM2.72 19.68H20V17.68H2.72V19.68ZM19.0154 18.505L18.6954 20.305L20.6646 20.655L20.9846 18.855L19.0154 18.505ZM20.4655 15.6456L3.50554 13.8456L3.29446 15.8344L20.2545 17.6344L20.4655 15.6456ZM3.4 15.84H20.64V13.84H3.4V15.84ZM19.6519 14.6863L19.3719 16.4863L21.3481 16.7937L21.6281 14.9937L19.6519 14.6863ZM17.7455 31.0056L0.785539 29.2056L0.57446 31.1944L17.5345 32.9944L17.7455 31.0056ZM0.68 31.2H17.96V29.2H0.68V31.2ZM16.9754 30.025L16.6554 31.825L18.6246 32.175L18.9446 30.375L16.9754 30.025ZM21.1058 11.8056L4.18579 10.0056L3.97421 11.9944L20.8942 13.7944L21.1058 11.8056ZM4.08 12H21.32V10H4.08V12ZM20.3354 10.825L20.0154 12.625L21.9846 12.975L22.3046 11.175L20.3354 10.825Z" fill="black" fill-opacity="0.69" mask="url(#path-3-outside-1_2_5)"/>
</svg>
